<svg width="360" height="800" viewBox="0 0 360 800" fill="none" xmlns="http://www.w3.org/2000/svg">
<mask id="mask0_210_628" style="mask-type:alpha" maskUnits="userSpaceOnUse" x="0" y="0" width="360" height="800">
<rect width="360" height="800" fill="#D9D9D9"/>
</mask>
<g mask="url(#mask0_210_628)">
<path d="M320.32 -120.834C383.876 -47.2884 375.777 63.854 302.232 127.41C228.686 190.965 117.544 182.867 53.9882 109.321C-9.56739 35.7757 -1.46895 -75.3667 72.0766 -138.922C145.622 -202.478 256.764 -194.379 320.32 -120.834Z" fill="url(#paint0_linear_210_628)"/>
<path d="M329.557 -62.7336C393.113 10.812 385.014 121.954 311.469 185.51C237.923 249.065 126.781 240.967 63.2255 167.422C-0.330082 93.876 7.76836 -17.2664 81.3139 -80.8219C154.859 -144.377 266.002 -136.279 329.557 -62.7336Z" fill="url(#paint1_linear_210_628)"/>
<circle cx="154.628" cy="51.428" r="176" transform="rotate(-40.8325 154.628 51.428)" fill="#33218F"/>
</g>
<defs>
<linearGradient id="paint0_linear_210_628" x1="180.321" y1="-247.662" x2="140.95" y2="209.952" gradientUnits="userSpaceOnUse">
<stop stop-color="#C72FF8"/>
<stop offset="1" stop-color="#C72FF8" stop-opacity="0"/>
</linearGradient>
<linearGradient id="paint1_linear_210_628" x1="67.6864" y1="130.525" x2="495.329" y2="26.6244" gradientUnits="userSpaceOnUse">
<stop stop-color="#C630F8" stop-opacity="0"/>
<stop offset="1" stop-color="#2F56F8"/>
</linearGradient>
</defs>
</svg>
