<svg width="360" height="802" viewBox="0 0 360 802" fill="none" xmlns="http://www.w3.org/2000/svg">
<mask id="mask0_302_246" style="mask-type:alpha" maskUnits="userSpaceOnUse" x="0" y="0" width="360" height="802">
<rect width="360" height="802" fill="#D9D9D9"/>
</mask>
<g mask="url(#mask0_302_246)">
<path d="M360.287 -249.407C425.968 -174.134 416.525 -58.139 339.196 9.67473C261.866 77.4885 145.932 71.4414 80.251 -3.83184C14.5695 -79.1051 24.0124 -195.1 101.342 -262.914C178.672 -330.727 294.605 -324.68 360.287 -249.407Z" fill="url(#paint0_linear_302_246)"/>
<path d="M348.963 -202.551C414.644 -127.278 405.201 -11.2827 327.871 56.531C250.542 124.345 134.608 118.298 68.9268 43.0245C3.24532 -32.2487 12.6882 -148.244 90.018 -216.057C167.348 -283.871 283.281 -277.824 348.963 -202.551Z" fill="url(#paint1_linear_302_246)"/>
<ellipse cx="186.231" cy="180.886" rx="186.231" ry="180.886" transform="matrix(0.751853 -0.659331 0.657469 0.753482 -92.999 -100.026)" fill="#33218F"/>
</g>
<defs>
<linearGradient id="paint0_linear_302_246" x1="215.292" y1="-378.561" x2="184.026" y2="100.071" gradientUnits="userSpaceOnUse">
<stop stop-color="#C72FF8"/>
<stop offset="1" stop-color="#C72FF8" stop-opacity="0"/>
</linearGradient>
<linearGradient id="paint1_linear_302_246" x1="73.9115" y1="4.47899" x2="523.858" y2="-101.702" gradientUnits="userSpaceOnUse">
<stop stop-color="#C630F8" stop-opacity="0"/>
<stop offset="1" stop-color="#2F56F8"/>
</linearGradient>
</defs>
</svg>
