<svg width="360" height="800" viewBox="0 0 360 800" fill="none" xmlns="http://www.w3.org/2000/svg">
<mask id="mask0_231_595" style="mask-type:alpha" maskUnits="userSpaceOnUse" x="0" y="0" width="360" height="800">
<rect width="360" height="800" fill="#D9D9D9"/>
</mask>
<g mask="url(#mask0_231_595)">
<path d="M217.409 -214.834C280.965 -141.289 272.867 -30.1463 199.321 33.4093C125.775 96.9649 14.6331 88.8665 -48.9225 15.3209C-112.478 -58.2246 -104.38 -169.367 -30.8341 -232.923C42.7114 -296.478 153.854 -288.38 217.409 -214.834Z" fill="#D6B8FC"/>
<path d="M287.476 -259.703C359.208 -176.696 350.067 -51.2558 267.061 20.4759C184.054 92.2076 58.6135 83.0674 -13.1182 0.0605442C-84.85 -82.9463 -75.7097 -208.387 7.29712 -280.118C90.3039 -351.85 215.744 -342.71 287.476 -259.703Z" fill="#6F51F8"/>
<path d="M445.949 -532.623C573.081 -385.507 556.882 -163.184 409.766 -36.0515C262.65 91.0813 40.327 74.8816 -86.8058 -72.2344C-213.939 -219.35 -197.739 -441.673 -50.6228 -568.806C96.4932 -695.939 318.816 -679.739 445.949 -532.623Z" fill="#33218F"/>
</g>
</svg>
