<svg width="360" height="800" viewBox="0 0 360 800" fill="none" xmlns="http://www.w3.org/2000/svg">
<path d="M654.545 280.802C515.298 542.687 190.032 642.06 -71.9585 502.757C-333.949 363.454 -433.452 38.2276 -294.205 -223.657C-154.958 -485.543 170.309 -584.915 432.299 -445.613C694.289 -306.31 793.792 18.9169 654.545 280.802Z" fill="url(#paint0_linear_197_204)"/>
<path d="M499.363 371.086C360.116 632.971 34.8495 732.344 -227.141 593.041C-489.131 453.739 -588.634 128.512 -449.387 -133.373C-310.14 -395.258 15.1264 -494.631 277.116 -355.328C539.107 -216.026 638.61 109.201 499.363 371.086Z" fill="url(#paint1_linear_197_204)"/>
<ellipse opacity="0.9" cx="-15.5537" cy="-0.437622" rx="534.35" ry="537.048" transform="rotate(28 -15.5537 -0.437622)" fill="url(#paint2_linear_197_204)"/>
<defs>
<linearGradient id="paint0_linear_197_204" x1="861.156" y1="-257.328" x2="-484.577" y2="135.215" gradientUnits="userSpaceOnUse">
<stop stop-color="#C72FF8"/>
<stop offset="1" stop-color="#C72FF8" stop-opacity="0"/>
</linearGradient>
<linearGradient id="paint1_linear_197_204" x1="-339.452" y1="-161.318" x2="427.461" y2="941.54" gradientUnits="userSpaceOnUse">
<stop stop-color="#C630F8" stop-opacity="0"/>
<stop offset="1" stop-color="#2F56F8"/>
</linearGradient>
<linearGradient id="paint2_linear_197_204" x1="-15.5537" y1="-537.485" x2="-15.5537" y2="536.61" gradientUnits="userSpaceOnUse">
<stop stop-color="#0E1F8C"/>
<stop offset="1" stop-color="#040826"/>
</linearGradient>
</defs>
</svg>
